<?xml version="1.0" ?>
<!-- Uploaded to: SVG Repo, www.svgrepo.com, Generator: SVG Repo Mixer Tools -->
<svg width="800px" height="800px" viewBox="0 0 512 512" enable-background="new 0 0 512 512" id="flat" version="1.1" xml:space="preserve" xmlns="http://www.w3.org/2000/svg" xmlns:xlink="http://www.w3.org/1999/xlink">
<polygon fill="#973D42" points="88,130.775 115.031,164.322 145.623,154.934 149.184,112 "/>
<path d="M158.49,251.4c-3.13,0.96-6.29,1.42-9.4,1.42c-5.35,0-10.54-1.35-15.13-3.83  c-4.72-2.52-8.8-6.23-11.77-10.86c-1.55-2.41-2.8-5.06-3.68-7.93l-3.84-12.52l-5.13-16.71l-5.11-16.66  c-5.19-16.89,4.31-34.79,21.2-39.98c3.13-0.96,6.29-1.41,9.4-1.41c6.84,0,13.42,2.21,18.82,6.14c4.36,3.16,7.95,7.44,10.28,12.58  c0.57,1.25,1.07,2.55,1.48,3.9l5.33,17.38l5.13,16.72l3.62,11.78C184.88,228.32,175.39,246.22,158.49,251.4z" fill="#E65C64"/>
<g>
<path d="M176.07,199.64l-42.11,49.35c-4.72-2.52-8.8-6.23-11.77-10.86l45.02-52.76c1.02-1.2,2.32-2.02,3.73-2.45   L176.07,199.64z" fill="#973D42"/>
</g>
<g>
<path d="M164.13,161.64l-45.72,53.59c-1.02,1.2-2.33,2.02-3.74,2.45l-5.13-16.71l44.06-51.64   c0.08-0.09,0.16-0.18,0.25-0.27C158.21,152.22,161.8,156.5,164.13,161.64z" fill="#973D42"/>
</g>
<g>
<path d="M271.069,268.189c-3.584,0-6.846-2.426-7.755-6.061l-21.354-85.37c-1.072-4.286,1.533-8.63,5.819-9.702   c4.283-1.069,8.63,1.532,9.702,5.819l21.354,85.37c1.072,4.286-1.533,8.63-5.819,9.702   C272.365,268.111,271.712,268.189,271.069,268.189z" fill="#973D42"/>
</g>
<circle cx="240.013" cy="136.013" fill="#E65C64" r="56"/>
<g>
<path d="M295.89,132.11v0.01c-6.3,5.46-18.89,13.81-37.32,14.27c-3.87,0.09-8-0.16-12.38-0.86   c-1.59-0.25-3.23-0.57-4.89-0.95c-1.12-0.25-2.25-0.54-3.4-0.85c-1.03-0.28-2.04-0.53-3.04-0.76h-0.01   c-1.49-0.32-2.94-0.58-4.35-0.78c-3.95-0.57-7.59-0.65-10.94-0.39c-17.78,1.35-27.19,12.29-27.7,12.89c-1,1.23-2.28,2.08-3.68,2.54   c-1-2.45-1.83-4.99-2.49-7.63c-0.81-3.24-1.32-6.47-1.55-9.69v-0.01c6.31-5.46,18.9-13.8,37.32-14.26   c3.86-0.1,7.99,0.16,12.38,0.86c1.59,0.25,3.22,0.57,4.88,0.95c1.12,0.25,2.26,0.53,3.41,0.85c1.03,0.28,2.04,0.53,3.03,0.75   c1.49,0.33,2.95,0.59,4.37,0.8c3.94,0.55,7.58,0.64,10.93,0.38c17.79-1.35,27.2-12.29,27.71-12.9c0.99-1.23,2.27-2.08,3.67-2.54   c1,2.45,1.84,4.99,2.5,7.63C295.15,125.66,295.66,128.89,295.89,132.11z" fill="#4D5166"/>
</g>
<g>
<path d="M276.77,93.75c-0.6,8.32-3.6,23.13-16.31,36.48c-2.66,2.81-5.76,5.55-9.35,8.15   c-1.31,0.95-2.69,1.88-4.13,2.79h-0.01v0.01c-0.97,0.59-1.96,1.19-2.99,1.78c-0.93,0.53-1.82,1.07-2.68,1.62   c-1.29,0.82-2.51,1.66-3.65,2.53c-3.18,2.38-5.82,4.9-8.01,7.45c-11.62,13.53-10.54,27.93-10.47,28.71   c0.16,1.57-0.14,3.08-0.81,4.39c-5.49-2.3-10.6-5.47-15.1-9.38c0.6-8.32,3.6-23.13,16.3-36.48c2.66-2.81,5.76-5.55,9.36-8.15   c1.31-0.96,2.68-1.89,4.13-2.78v-0.01h0.01c0.97-0.62,1.96-1.21,2.99-1.8c0.93-0.53,1.82-1.07,2.67-1.61   c1.29-0.82,2.51-1.67,3.65-2.53c3.19-2.39,5.83-4.91,8.02-7.46c11.62-13.53,10.54-27.93,10.47-28.71c-0.16-1.57,0.14-3.07,0.8-4.38   C267.16,86.67,272.26,89.84,276.77,93.75z" fill="#4D5166"/>
</g>
<g>
<path d="M261.23,187.85c-2.45,0.99-4.99,1.83-7.63,2.49c-3.24,0.81-6.48,1.32-9.69,1.55   c-5.46-6.3-13.81-18.9-14.27-37.33c-0.09-3.86,0.16-7.99,0.86-12.37c0.25-1.59,0.57-3.23,0.95-4.89c0.25-1.12,0.54-2.25,0.85-3.4   c0.28-1.03,0.53-2.03,0.75-3.03v-0.01h0.01c0.32-1.49,0.58-2.94,0.78-4.36c0.56-3.94,0.65-7.59,0.39-10.94   c-1.35-17.78-12.29-27.19-12.9-27.7c-1.22-1-2.07-2.28-2.53-3.67c2.44-1.01,4.99-1.84,7.62-2.5c3.24-0.81,6.48-1.32,9.7-1.55   c5.46,6.3,13.81,18.89,14.27,37.32c0.09,3.87-0.16,8-0.86,12.39c-0.25,1.59-0.57,3.22-0.95,4.88c-0.25,1.12-0.54,2.25-0.85,3.4   c-0.28,1.03-0.53,2.04-0.75,3.04h-0.01v0.01c-0.32,1.49-0.58,2.94-0.78,4.35c-0.57,3.95-0.65,7.59-0.39,10.94   c1.35,17.78,12.29,27.19,12.89,27.7C259.92,185.17,260.77,186.45,261.23,187.85z" fill="#4D5166"/>
</g>
<g>
<path d="M291.65,157.69c-2.3,5.49-5.48,10.58-9.38,15.08c-8.31-0.6-23.12-3.6-36.47-16.3   c-2.81-2.66-5.55-5.76-8.15-9.36c-0.96-1.31-1.89-2.69-2.79-4.14h-0.01c-0.61-0.97-1.2-1.96-1.79-2.99   c-0.53-0.93-1.07-1.82-1.61-2.68c-0.83-1.29-1.67-2.51-2.53-3.65c-2.39-3.18-4.91-5.82-7.46-8.01   c-13.78-11.82-28.46-10.49-28.65-10.47c-1.59,0.16-3.12-0.15-4.44-0.83c2.31-5.49,5.48-10.58,9.38-15.08   c8.32,0.6,23.13,3.6,36.48,16.3c2.8,2.67,5.54,5.76,8.14,9.36c0.95,1.3,1.88,2.68,2.79,4.13c0.61,0.97,1.21,1.97,1.8,3   c0.53,0.93,1.07,1.82,1.62,2.68c0.82,1.29,1.67,2.51,2.53,3.65c2.39,3.18,4.91,5.82,7.46,8.01c13.78,11.81,28.45,10.49,28.64,10.47   C288.8,156.69,290.33,157.01,291.65,157.69z" fill="#4D5166"/>
</g>
<g>
<path d="M316.481,272.002c-0.57,0-1.148-0.062-1.728-0.188c-4.314-0.95-7.043-5.218-6.094-9.533l18.915-85.943   c0.95-4.314,5.216-7.039,9.533-6.094c4.314,0.95,7.043,5.218,6.094,9.533l-18.915,85.943   C323.465,269.455,320.155,272.002,316.481,272.002z" fill="#973D42"/>
</g>
<circle cx="343.986" cy="138.992" fill="#E6C067" r="64"/>
<g>
<path d="M331.808,127.928c-2.639,0-5.222-1.304-6.748-3.692l-1.785-2.792l-2.792,1.784   c-3.724,2.381-8.67,1.292-11.049-2.432c-2.38-3.723-1.291-8.67,2.432-11.049l9.532-6.093c3.726-2.382,8.671-1.292,11.049,2.432   l6.094,9.532c2.38,3.723,1.291,8.669-2.432,11.049C334.774,127.521,333.282,127.928,331.808,127.928z" fill="#973D42"/>
</g>
<g>
<path d="M378.686,138.245c-2.639,0-5.222-1.304-6.748-3.692l-1.785-2.792l-2.792,1.784   c-3.721,2.381-8.67,1.292-11.049-2.432c-2.38-3.723-1.291-8.669,2.432-11.049l9.532-6.094c1.787-1.144,3.954-1.528,6.028-1.073   c2.072,0.456,3.878,1.717,5.021,3.505l6.094,9.533c2.38,3.723,1.291,8.67-2.432,11.049   C381.652,137.838,380.16,138.245,378.686,138.245z" fill="#973D42"/>
</g>
<g>
<path d="M344.542,175.059c-2.75,0-5.526-0.3-8.293-0.908c-11.793-2.596-21.424-10.388-26.423-21.379   c-1.829-4.022-0.052-8.766,3.97-10.595c4.022-1.83,8.765-0.052,10.595,3.97c2.895,6.363,8.47,10.875,15.298,12.378   c6.826,1.503,13.781-0.251,19.079-4.812c3.35-2.883,8.4-2.504,11.282,0.845s2.504,8.399-0.845,11.282   C362.2,171.869,353.518,175.059,344.542,175.059z" fill="#973D42"/>
</g>
<g>
<path d="M351.022,189.498c-0.57,0-1.148-0.062-1.728-0.189c-4.315-0.949-7.043-5.217-6.093-9.532l3.439-15.626   c0.948-4.315,5.223-7.047,9.532-6.093c4.315,0.949,7.043,5.217,6.093,9.532l-3.439,15.626   C358.006,186.951,354.696,189.498,351.022,189.498z" fill="#973D42"/>
</g>
<g>
<path d="M319.771,182.62c-0.57,0-1.148-0.062-1.728-0.189c-4.315-0.949-7.043-5.217-6.093-9.532l3.439-15.626   c0.948-4.315,5.222-7.044,9.532-6.093c4.315,0.949,7.043,5.217,6.093,9.532l-3.439,15.626   C326.754,180.073,323.444,182.62,319.771,182.62z" fill="#973D42"/>
</g>
<g>
<path d="M428.893,256H75.107c-9.147,0-17.851-3.947-23.876-10.83c-6.025-6.882-8.787-16.029-7.578-25.097   l5.685-42.64c6.55-49.126,30.693-94.16,67.982-126.808C154.609,17.979,202.439,0,252,0s97.391,17.979,134.68,50.626   c37.289,32.647,61.433,77.682,67.982,126.808l5.685,42.64c1.209,9.067-1.553,18.215-7.578,25.097   C446.743,252.053,438.04,256,428.893,256z M252,16c-45.683,0-89.77,16.572-124.141,46.664   c-34.37,30.093-56.624,71.603-62.662,116.885l-5.685,42.64c-0.6,4.495,0.77,9.03,3.757,12.442   c2.988,3.412,7.303,5.369,11.838,5.369h353.785c4.535,0,8.85-1.957,11.838-5.369c2.987-3.412,4.356-7.947,3.757-12.442   l-5.685-42.64c-6.038-45.282-28.292-86.792-62.662-116.885C341.77,32.572,297.683,16,252,16z" fill="#4D5166"/>
</g>
<path d="M359.695,504H152.305c-13.776,0-25.288-10.484-26.574-24.199L104,248h304l-21.731,231.801  C384.983,493.516,373.47,504,359.695,504z" fill="#ECA559"/>
<g>
<path d="M256,480c-4.418,0-8-3.582-8-8V296c0-4.418,3.582-8,8-8s8,3.582,8,8v176C264,476.418,260.418,480,256,480z" fill="#B68045"/>
</g>
<g>
<path d="M296.01,480.001c-0.359,0-0.724-0.024-1.091-0.074c-4.378-0.597-7.442-4.63-6.846-9.008l24-176   c0.597-4.377,4.618-7.441,9.008-6.846c4.378,0.597,7.442,4.63,6.846,9.008l-24,176C303.38,477.092,299.948,480.001,296.01,480.001z   " fill="#B68045"/>
</g>
<g>
<path d="M344.01,480.001c-0.359,0-0.724-0.024-1.091-0.074c-4.378-0.597-7.442-4.63-6.846-9.008l24-176   c0.597-4.377,4.618-7.441,9.008-6.846c4.378,0.597,7.442,4.63,6.846,9.008l-24,176C351.38,477.092,347.948,480.001,344.01,480.001z   " fill="#B68045"/>
</g>
<g>
<path d="M215.99,480.001c-3.938,0-7.37-2.909-7.917-6.92l-24-176c-0.597-4.378,2.468-8.411,6.846-9.008   c4.39-0.587,8.412,2.47,9.008,6.846l24,176c0.597,4.378-2.468,8.411-6.846,9.008C216.714,479.977,216.35,480.001,215.99,480.001z" fill="#B68045"/>
</g>
<g>
<path d="M167.99,480.001c-3.938,0-7.37-2.909-7.917-6.92l-24-176c-0.597-4.378,2.468-8.411,6.846-9.008   c4.389-0.587,8.412,2.47,9.008,6.846l24,176c0.597,4.378-2.468,8.411-6.846,9.008C168.714,479.977,168.35,480.001,167.99,480.001z" fill="#B68045"/>
</g>
<path d="M414.958,264H97.042c-4.994,0-9.042-4.048-9.042-9.042v-13.917c0-4.994,4.048-9.042,9.042-9.042h317.917  c4.994,0,9.042,4.048,9.042,9.042v13.917C424,259.952,419.952,264,414.958,264z" fill="#B68045"/>
<polygon fill="#953C41" points="160,344 192,296 224,344 "/>
<polygon fill="#953C41" points="288,344 320,296 352,344 "/>
<path d="M258.334,456h-4.669c-32.89,0-62.957-18.582-77.666-48l0,0l0,0c52.81,10.562,107.189,10.562,160,0l0,0l0,0  C321.291,437.418,291.224,456,258.334,456z" fill="#953C41"/>
<g>
<path d="M232,415.21V424c0,4.42-3.58,8-8,8s-8-3.58-8-8v-10.05C221.33,414.48,226.66,414.9,232,415.21z" fill="#522124"/>
</g>
<g>
<path d="M296,413.95V424c0,4.42-3.58,8-8,8s-8-3.58-8-8v-8.79C285.34,414.9,290.67,414.48,296,413.95z" fill="#522124"/>
</g>
<g>
<path d="M248,440v15.81c-5.46-0.35-10.81-1.21-16-2.55V440c0-4.42,3.58-8,8-8S248,435.58,248,440z" fill="#522124"/>
</g>
<g>
<path d="M280,440v13.26c-5.19,1.34-10.54,2.2-16,2.55V440c0-4.42,3.58-8,8-8S280,435.58,280,440z" fill="#522124"/>
</g>
</svg>